<mxfile host="Electron" modified="2023-10-28T20:00:47.977Z" agent="Mozilla/5.0 (Macintosh; Intel Mac OS X 10_15_7) AppleWebKit/537.36 (KHTML, like Gecko) draw.io/22.0.3 Chrome/114.0.5735.289 Electron/25.8.4 Safari/537.36" etag="NxDtUY_IbODaARWCAK-K" version="22.0.3" type="device" pages="2">
  <diagram id="ks2n3edpZDyrcrVksH1o" name="Driver Registration Flow">
    <mxGraphModel dx="1670" dy="921" grid="1" gridSize="10" guides="1" tooltips="1" connect="1" arrows="1" fold="1" page="1" pageScale="1" pageWidth="850" pageHeight="1100" math="0" shadow="0">
      <root>
        <mxCell id="0" />
        <mxCell id="1" parent="0" />
        <mxCell id="xxOYMUocA_w6UjREiuGi-1" value="App" style="swimlane;horizontal=0;whiteSpace=wrap;html=1;" parent="1" vertex="1">
          <mxGeometry y="110" width="980" height="200" as="geometry" />
        </mxCell>
        <mxCell id="xxOYMUocA_w6UjREiuGi-2" value="" style="edgeStyle=orthogonalEdgeStyle;rounded=0;orthogonalLoop=1;jettySize=auto;html=1;" parent="xxOYMUocA_w6UjREiuGi-1" source="xxOYMUocA_w6UjREiuGi-3" target="xxOYMUocA_w6UjREiuGi-4" edge="1">
          <mxGeometry relative="1" as="geometry" />
        </mxCell>
        <mxCell id="xxOYMUocA_w6UjREiuGi-3" value="Create user in Authentication system" style="points=[[0.25,0,0],[0.5,0,0],[0.75,0,0],[1,0.25,0],[1,0.5,0],[1,0.75,0],[0.75,1,0],[0.5,1,0],[0.25,1,0],[0,0.75,0],[0,0.5,0],[0,0.25,0]];shape=mxgraph.bpmn.task;whiteSpace=wrap;rectStyle=rounded;size=10;html=1;container=1;expand=0;collapsible=0;taskMarker=abstract;" parent="xxOYMUocA_w6UjREiuGi-1" vertex="1">
          <mxGeometry x="480" y="50" width="120" height="80" as="geometry" />
        </mxCell>
        <mxCell id="xxOYMUocA_w6UjREiuGi-4" value="Create driver in Data system" style="points=[[0.25,0,0],[0.5,0,0],[0.75,0,0],[1,0.25,0],[1,0.5,0],[1,0.75,0],[0.75,1,0],[0.5,1,0],[0.25,1,0],[0,0.75,0],[0,0.5,0],[0,0.25,0]];shape=mxgraph.bpmn.task;whiteSpace=wrap;rectStyle=rounded;size=10;html=1;container=1;expand=0;collapsible=0;taskMarker=abstract;" parent="xxOYMUocA_w6UjREiuGi-1" vertex="1">
          <mxGeometry x="640" y="50" width="120" height="80" as="geometry" />
        </mxCell>
        <mxCell id="yvqbchbb2BaxcTLoluS5-3" style="edgeStyle=orthogonalEdgeStyle;rounded=0;orthogonalLoop=1;jettySize=auto;html=1;exitX=1;exitY=0.5;exitDx=0;exitDy=0;exitPerimeter=0;entryX=0;entryY=0.5;entryDx=0;entryDy=0;entryPerimeter=0;" parent="xxOYMUocA_w6UjREiuGi-1" source="yvqbchbb2BaxcTLoluS5-1" target="xxOYMUocA_w6UjREiuGi-3" edge="1">
          <mxGeometry relative="1" as="geometry" />
        </mxCell>
        <mxCell id="yvqbchbb2BaxcTLoluS5-1" value="Validaciones - Verificaciones" style="points=[[0.25,0,0],[0.5,0,0],[0.75,0,0],[1,0.25,0],[1,0.5,0],[1,0.75,0],[0.75,1,0],[0.5,1,0],[0.25,1,0],[0,0.75,0],[0,0.5,0],[0,0.25,0]];shape=mxgraph.bpmn.task;whiteSpace=wrap;rectStyle=rounded;size=10;html=1;container=1;expand=0;collapsible=0;taskMarker=abstract;" parent="xxOYMUocA_w6UjREiuGi-1" vertex="1">
          <mxGeometry x="300" y="50" width="120" height="80" as="geometry" />
        </mxCell>
        <mxCell id="xxOYMUocA_w6UjREiuGi-5" value="Driver" style="swimlane;horizontal=0;whiteSpace=wrap;html=1;" parent="1" vertex="1">
          <mxGeometry y="310" width="980" height="200" as="geometry" />
        </mxCell>
        <mxCell id="xxOYMUocA_w6UjREiuGi-6" style="edgeStyle=orthogonalEdgeStyle;rounded=0;orthogonalLoop=1;jettySize=auto;html=1;entryX=0;entryY=0.5;entryDx=0;entryDy=0;entryPerimeter=0;" parent="xxOYMUocA_w6UjREiuGi-5" source="xxOYMUocA_w6UjREiuGi-7" target="xxOYMUocA_w6UjREiuGi-8" edge="1">
          <mxGeometry relative="1" as="geometry" />
        </mxCell>
        <mxCell id="xxOYMUocA_w6UjREiuGi-7" value="" style="points=[[0.145,0.145,0],[0.5,0,0],[0.855,0.145,0],[1,0.5,0],[0.855,0.855,0],[0.5,1,0],[0.145,0.855,0],[0,0.5,0]];shape=mxgraph.bpmn.event;html=1;verticalLabelPosition=bottom;labelBackgroundColor=#ffffff;verticalAlign=top;align=center;perimeter=ellipsePerimeter;outlineConnect=0;aspect=fixed;outline=standard;symbol=general;" parent="xxOYMUocA_w6UjREiuGi-5" vertex="1">
          <mxGeometry x="70" y="75" width="50" height="50" as="geometry" />
        </mxCell>
        <mxCell id="xxOYMUocA_w6UjREiuGi-8" value="Starts app" style="points=[[0.25,0,0],[0.5,0,0],[0.75,0,0],[1,0.25,0],[1,0.5,0],[1,0.75,0],[0.75,1,0],[0.5,1,0],[0.25,1,0],[0,0.75,0],[0,0.5,0],[0,0.25,0]];shape=mxgraph.bpmn.task;whiteSpace=wrap;rectStyle=rounded;size=10;html=1;container=1;expand=0;collapsible=0;taskMarker=abstract;" parent="xxOYMUocA_w6UjREiuGi-5" vertex="1">
          <mxGeometry x="180" y="60" width="120" height="80" as="geometry" />
        </mxCell>
        <mxCell id="xxOYMUocA_w6UjREiuGi-9" value="Complete registration form" style="points=[[0.25,0,0],[0.5,0,0],[0.75,0,0],[1,0.25,0],[1,0.5,0],[1,0.75,0],[0.75,1,0],[0.5,1,0],[0.25,1,0],[0,0.75,0],[0,0.5,0],[0,0.25,0]];shape=mxgraph.bpmn.task;whiteSpace=wrap;rectStyle=rounded;size=10;html=1;container=1;expand=0;collapsible=0;taskMarker=abstract;" parent="xxOYMUocA_w6UjREiuGi-5" vertex="1">
          <mxGeometry x="370" y="60" width="120" height="80" as="geometry" />
        </mxCell>
        <mxCell id="xxOYMUocA_w6UjREiuGi-10" style="edgeStyle=orthogonalEdgeStyle;rounded=0;orthogonalLoop=1;jettySize=auto;html=1;" parent="xxOYMUocA_w6UjREiuGi-5" source="xxOYMUocA_w6UjREiuGi-8" target="xxOYMUocA_w6UjREiuGi-9" edge="1">
          <mxGeometry relative="1" as="geometry" />
        </mxCell>
        <mxCell id="xxOYMUocA_w6UjREiuGi-11" value="" style="ellipse;whiteSpace=wrap;html=1;aspect=fixed;fillColor=#000000;" parent="xxOYMUocA_w6UjREiuGi-5" vertex="1">
          <mxGeometry x="880" y="75" width="50" height="50" as="geometry" />
        </mxCell>
        <mxCell id="xxOYMUocA_w6UjREiuGi-12" value="App is in it&#39;s main menu for driver" style="points=[[0.25,0,0],[0.5,0,0],[0.75,0,0],[1,0.25,0],[1,0.5,0],[1,0.75,0],[0.75,1,0],[0.5,1,0],[0.25,1,0],[0,0.75,0],[0,0.5,0],[0,0.25,0]];shape=mxgraph.bpmn.task;whiteSpace=wrap;rectStyle=rounded;size=10;html=1;container=1;expand=0;collapsible=0;taskMarker=abstract;" parent="xxOYMUocA_w6UjREiuGi-5" vertex="1">
          <mxGeometry x="640" y="60" width="120" height="80" as="geometry" />
        </mxCell>
        <mxCell id="xxOYMUocA_w6UjREiuGi-13" value="" style="edgeStyle=orthogonalEdgeStyle;rounded=0;orthogonalLoop=1;jettySize=auto;html=1;" parent="xxOYMUocA_w6UjREiuGi-5" source="xxOYMUocA_w6UjREiuGi-12" target="xxOYMUocA_w6UjREiuGi-11" edge="1">
          <mxGeometry relative="1" as="geometry" />
        </mxCell>
        <mxCell id="xxOYMUocA_w6UjREiuGi-14" style="edgeStyle=orthogonalEdgeStyle;rounded=0;orthogonalLoop=1;jettySize=auto;html=1;entryX=0.5;entryY=1;entryDx=0;entryDy=0;entryPerimeter=0;" parent="1" source="xxOYMUocA_w6UjREiuGi-9" target="yvqbchbb2BaxcTLoluS5-1" edge="1">
          <mxGeometry relative="1" as="geometry" />
        </mxCell>
        <mxCell id="xxOYMUocA_w6UjREiuGi-15" style="edgeStyle=orthogonalEdgeStyle;rounded=0;orthogonalLoop=1;jettySize=auto;html=1;exitX=0.5;exitY=1;exitDx=0;exitDy=0;exitPerimeter=0;" parent="1" source="xxOYMUocA_w6UjREiuGi-4" target="xxOYMUocA_w6UjREiuGi-12" edge="1">
          <mxGeometry relative="1" as="geometry" />
        </mxCell>
        <mxCell id="j0Zzd_cHbP_kD1L9WsCC-1" value="&lt;h1&gt;Sign up driver diagram&lt;/h1&gt;" style="text;html=1;align=center;verticalAlign=middle;resizable=0;points=[];autosize=1;strokeColor=none;fillColor=none;" vertex="1" parent="1">
          <mxGeometry x="15" y="30" width="280" height="70" as="geometry" />
        </mxCell>
        <mxCell id="okwbEewKg5Eu5IL0NLIj-1" value="App" style="swimlane;horizontal=0;whiteSpace=wrap;html=1;" vertex="1" parent="1">
          <mxGeometry y="610" width="1110" height="200" as="geometry" />
        </mxCell>
        <mxCell id="okwbEewKg5Eu5IL0NLIj-2" value="Create user in Authentication system" style="points=[[0.25,0,0],[0.5,0,0],[0.75,0,0],[1,0.25,0],[1,0.5,0],[1,0.75,0],[0.75,1,0],[0.5,1,0],[0.25,1,0],[0,0.75,0],[0,0.5,0],[0,0.25,0]];shape=mxgraph.bpmn.task;whiteSpace=wrap;rectStyle=rounded;size=10;html=1;container=1;expand=0;collapsible=0;taskMarker=abstract;" vertex="1" parent="okwbEewKg5Eu5IL0NLIj-1">
          <mxGeometry x="370" y="50" width="120" height="80" as="geometry" />
        </mxCell>
        <mxCell id="okwbEewKg5Eu5IL0NLIj-3" value="Create client in Data system" style="points=[[0.25,0,0],[0.5,0,0],[0.75,0,0],[1,0.25,0],[1,0.5,0],[1,0.75,0],[0.75,1,0],[0.5,1,0],[0.25,1,0],[0,0.75,0],[0,0.5,0],[0,0.25,0]];shape=mxgraph.bpmn.task;whiteSpace=wrap;rectStyle=rounded;size=10;html=1;container=1;expand=0;collapsible=0;taskMarker=abstract;" vertex="1" parent="okwbEewKg5Eu5IL0NLIj-1">
          <mxGeometry x="810" y="50" width="120" height="80" as="geometry" />
        </mxCell>
        <mxCell id="okwbEewKg5Eu5IL0NLIj-4" value="Send email with validation code" style="points=[[0.25,0,0],[0.5,0,0],[0.75,0,0],[1,0.25,0],[1,0.5,0],[1,0.75,0],[0.75,1,0],[0.5,1,0],[0.25,1,0],[0,0.75,0],[0,0.5,0],[0,0.25,0]];shape=mxgraph.bpmn.task;whiteSpace=wrap;rectStyle=rounded;size=10;html=1;container=1;expand=0;collapsible=0;taskMarker=abstract;" vertex="1" parent="okwbEewKg5Eu5IL0NLIj-1">
          <mxGeometry x="560" y="50" width="120" height="80" as="geometry" />
        </mxCell>
        <mxCell id="okwbEewKg5Eu5IL0NLIj-5" style="edgeStyle=orthogonalEdgeStyle;rounded=0;orthogonalLoop=1;jettySize=auto;html=1;entryX=0;entryY=0.5;entryDx=0;entryDy=0;entryPerimeter=0;" edge="1" parent="okwbEewKg5Eu5IL0NLIj-1" source="okwbEewKg5Eu5IL0NLIj-2" target="okwbEewKg5Eu5IL0NLIj-4">
          <mxGeometry relative="1" as="geometry" />
        </mxCell>
        <mxCell id="okwbEewKg5Eu5IL0NLIj-6" value="Client" style="swimlane;horizontal=0;whiteSpace=wrap;html=1;" vertex="1" parent="1">
          <mxGeometry y="810" width="1110" height="200" as="geometry" />
        </mxCell>
        <mxCell id="okwbEewKg5Eu5IL0NLIj-7" style="edgeStyle=orthogonalEdgeStyle;rounded=0;orthogonalLoop=1;jettySize=auto;html=1;entryX=0;entryY=0.5;entryDx=0;entryDy=0;entryPerimeter=0;" edge="1" parent="okwbEewKg5Eu5IL0NLIj-6" source="okwbEewKg5Eu5IL0NLIj-8" target="okwbEewKg5Eu5IL0NLIj-9">
          <mxGeometry relative="1" as="geometry" />
        </mxCell>
        <mxCell id="okwbEewKg5Eu5IL0NLIj-8" value="" style="points=[[0.145,0.145,0],[0.5,0,0],[0.855,0.145,0],[1,0.5,0],[0.855,0.855,0],[0.5,1,0],[0.145,0.855,0],[0,0.5,0]];shape=mxgraph.bpmn.event;html=1;verticalLabelPosition=bottom;labelBackgroundColor=#ffffff;verticalAlign=top;align=center;perimeter=ellipsePerimeter;outlineConnect=0;aspect=fixed;outline=standard;symbol=general;" vertex="1" parent="okwbEewKg5Eu5IL0NLIj-6">
          <mxGeometry x="70" y="75" width="50" height="50" as="geometry" />
        </mxCell>
        <mxCell id="okwbEewKg5Eu5IL0NLIj-9" value="Starts app" style="points=[[0.25,0,0],[0.5,0,0],[0.75,0,0],[1,0.25,0],[1,0.5,0],[1,0.75,0],[0.75,1,0],[0.5,1,0],[0.25,1,0],[0,0.75,0],[0,0.5,0],[0,0.25,0]];shape=mxgraph.bpmn.task;whiteSpace=wrap;rectStyle=rounded;size=10;html=1;container=1;expand=0;collapsible=0;taskMarker=abstract;" vertex="1" parent="okwbEewKg5Eu5IL0NLIj-6">
          <mxGeometry x="180" y="60" width="120" height="80" as="geometry" />
        </mxCell>
        <mxCell id="okwbEewKg5Eu5IL0NLIj-10" value="Complete registration form" style="points=[[0.25,0,0],[0.5,0,0],[0.75,0,0],[1,0.25,0],[1,0.5,0],[1,0.75,0],[0.75,1,0],[0.5,1,0],[0.25,1,0],[0,0.75,0],[0,0.5,0],[0,0.25,0]];shape=mxgraph.bpmn.task;whiteSpace=wrap;rectStyle=rounded;size=10;html=1;container=1;expand=0;collapsible=0;taskMarker=abstract;" vertex="1" parent="okwbEewKg5Eu5IL0NLIj-6">
          <mxGeometry x="370" y="60" width="120" height="80" as="geometry" />
        </mxCell>
        <mxCell id="okwbEewKg5Eu5IL0NLIj-11" style="edgeStyle=orthogonalEdgeStyle;rounded=0;orthogonalLoop=1;jettySize=auto;html=1;" edge="1" parent="okwbEewKg5Eu5IL0NLIj-6" source="okwbEewKg5Eu5IL0NLIj-9" target="okwbEewKg5Eu5IL0NLIj-10">
          <mxGeometry relative="1" as="geometry" />
        </mxCell>
        <mxCell id="okwbEewKg5Eu5IL0NLIj-12" value="" style="ellipse;whiteSpace=wrap;html=1;aspect=fixed;fillColor=#000000;" vertex="1" parent="okwbEewKg5Eu5IL0NLIj-6">
          <mxGeometry x="1030" y="75" width="50" height="50" as="geometry" />
        </mxCell>
        <mxCell id="okwbEewKg5Eu5IL0NLIj-13" value="App is in it&#39;s main menu for client&amp;nbsp;" style="points=[[0.25,0,0],[0.5,0,0],[0.75,0,0],[1,0.25,0],[1,0.5,0],[1,0.75,0],[0.75,1,0],[0.5,1,0],[0.25,1,0],[0,0.75,0],[0,0.5,0],[0,0.25,0]];shape=mxgraph.bpmn.task;whiteSpace=wrap;rectStyle=rounded;size=10;html=1;container=1;expand=0;collapsible=0;taskMarker=abstract;" vertex="1" parent="okwbEewKg5Eu5IL0NLIj-6">
          <mxGeometry x="810" y="60" width="120" height="80" as="geometry" />
        </mxCell>
        <mxCell id="okwbEewKg5Eu5IL0NLIj-14" value="" style="edgeStyle=orthogonalEdgeStyle;rounded=0;orthogonalLoop=1;jettySize=auto;html=1;" edge="1" parent="okwbEewKg5Eu5IL0NLIj-6" source="okwbEewKg5Eu5IL0NLIj-13" target="okwbEewKg5Eu5IL0NLIj-12">
          <mxGeometry relative="1" as="geometry" />
        </mxCell>
        <mxCell id="okwbEewKg5Eu5IL0NLIj-15" value="Complete with code" style="points=[[0.25,0,0],[0.5,0,0],[0.75,0,0],[1,0.25,0],[1,0.5,0],[1,0.75,0],[0.75,1,0],[0.5,1,0],[0.25,1,0],[0,0.75,0],[0,0.5,0],[0,0.25,0]];shape=mxgraph.bpmn.task;whiteSpace=wrap;rectStyle=rounded;size=10;html=1;container=1;expand=0;collapsible=0;taskMarker=abstract;" vertex="1" parent="okwbEewKg5Eu5IL0NLIj-6">
          <mxGeometry x="560" y="60" width="120" height="80" as="geometry" />
        </mxCell>
        <mxCell id="okwbEewKg5Eu5IL0NLIj-16" style="edgeStyle=orthogonalEdgeStyle;rounded=0;orthogonalLoop=1;jettySize=auto;html=1;" edge="1" parent="1" source="okwbEewKg5Eu5IL0NLIj-10" target="okwbEewKg5Eu5IL0NLIj-2">
          <mxGeometry relative="1" as="geometry" />
        </mxCell>
        <mxCell id="okwbEewKg5Eu5IL0NLIj-17" style="edgeStyle=orthogonalEdgeStyle;rounded=0;orthogonalLoop=1;jettySize=auto;html=1;exitX=0.5;exitY=1;exitDx=0;exitDy=0;exitPerimeter=0;" edge="1" parent="1" source="okwbEewKg5Eu5IL0NLIj-3" target="okwbEewKg5Eu5IL0NLIj-13">
          <mxGeometry relative="1" as="geometry" />
        </mxCell>
        <mxCell id="okwbEewKg5Eu5IL0NLIj-18" style="edgeStyle=orthogonalEdgeStyle;rounded=0;orthogonalLoop=1;jettySize=auto;html=1;" edge="1" parent="1" source="okwbEewKg5Eu5IL0NLIj-4" target="okwbEewKg5Eu5IL0NLIj-15">
          <mxGeometry relative="1" as="geometry" />
        </mxCell>
        <mxCell id="okwbEewKg5Eu5IL0NLIj-19" style="edgeStyle=orthogonalEdgeStyle;rounded=0;orthogonalLoop=1;jettySize=auto;html=1;entryX=0;entryY=0.5;entryDx=0;entryDy=0;entryPerimeter=0;" edge="1" parent="1" source="okwbEewKg5Eu5IL0NLIj-15" target="okwbEewKg5Eu5IL0NLIj-3">
          <mxGeometry relative="1" as="geometry" />
        </mxCell>
        <mxCell id="okwbEewKg5Eu5IL0NLIj-20" value="&lt;h1 style=&quot;border-color: var(--border-color); color: rgb(0, 0, 0); font-family: Helvetica; font-style: normal; font-variant-ligatures: normal; font-variant-caps: normal; letter-spacing: normal; orphans: 2; text-align: center; text-indent: 0px; text-transform: none; widows: 2; word-spacing: 0px; -webkit-text-stroke-width: 0px; background-color: rgb(251, 251, 251); text-decoration-thickness: initial; text-decoration-style: initial; text-decoration-color: initial;&quot;&gt;Sign up client diagram&lt;/h1&gt;" style="text;whiteSpace=wrap;html=1;" vertex="1" parent="1">
          <mxGeometry x="15" y="530" width="295" height="80" as="geometry" />
        </mxCell>
      </root>
    </mxGraphModel>
  </diagram>
  <diagram id="D8gGSvz0njGLkRoUGnHr" name="Client Registration flow">
    <mxGraphModel dx="1670" dy="921" grid="1" gridSize="10" guides="1" tooltips="1" connect="1" arrows="1" fold="1" page="1" pageScale="1" pageWidth="850" pageHeight="1100" math="0" shadow="0">
      <root>
        <mxCell id="0" />
        <mxCell id="1" parent="0" />
      </root>
    </mxGraphModel>
  </diagram>
</mxfile>
